<?xml version="1.0" standalone="no"?>
<!DOCTYPE svg PUBLIC "-//W3C//DTD SVG 20010904//EN"
 "http://www.w3.org/TR/2001/REC-SVG-20010904/DTD/svg10.dtd">
<svg version="1.0" xmlns="http://www.w3.org/2000/svg"
 width="260.000000pt" height="260.000000pt" viewBox="0 0 260.000000 260.000000"
 preserveAspectRatio="xMidYMid meet">
<metadata>
Created by potrace 1.11, written by Peter Selinger 2001-2013
</metadata>
<g transform="translate(0.000000,260.000000) scale(0.100000,-0.100000)"
fill="#000000" stroke="none">
<path d="M220 2583 c-96 -33 -173 -112 -204 -208 -15 -45 -16 -155 -14 -1095
l3 -1045 24 -48 c30 -62 96 -128 158 -158 l48 -24 1065 0 1065 0 48 24 c62 30
128 96 158 158 l24 48 0 1065 0 1065 -24 48 c-30 62 -96 128 -158 158 l-48 24
-1050 2 c-935 2 -1055 1 -1095 -14z m1447 -98 c34 -23 47 -76 29 -120 -42 -99
-188 -69 -188 39 0 46 17 75 55 92 34 15 69 11 104 -11z m-657 0 c37 -19 50
-43 50 -93 0 -52 -43 -92 -98 -92 -89 1 -133 109 -69 167 39 36 73 41 117 18z
m1339 -39 c49 -26 64 -86 34 -137 -51 -87 -183 -49 -183 53 0 77 77 121 149
84z m-1986 -47 c37 -40 37 -88 -2 -131 -22 -25 -37 -32 -65 -32 -108 0 -143
138 -47 186 44 22 78 15 114 -23z m1807 -268 c14 -27 14 -1645 0 -1672 -10
-19 -30 -19 -848 -19 -639 0 -841 3 -850 12 -17 17 -17 1669 0 1686 9 9 211
12 850 12 818 0 838 0 848 -19z m-1895 -414 c17 -14 28 -36 32 -63 4 -33 1
-45 -22 -72 -63 -75 -174 -36 -175 61 0 83 102 129 165 74z m2186 -6 c50 -51
34 -134 -31 -161 -84 -35 -168 58 -126 138 20 39 41 51 89 52 29 0 45 -7 68
-29z m-2200 -641 c51 -28 61 -116 16 -158 -67 -63 -167 -19 -167 73 0 71 86
119 151 85z m2200 -19 c50 -51 34 -134 -31 -161 -84 -35 -168 58 -126 138 20
39 41 51 89 52 29 0 45 -7 68 -29z m-2110 -680 c49 -49 35 -126 -28 -156 -45
-21 -85 -12 -119 28 -22 26 -25 38 -21 71 12 84 108 117 168 57z m2060 0 c47
-47 36 -121 -23 -155 -41 -25 -89 -14 -123 26 -23 27 -26 39 -22 72 12 84 108
117 168 57z m-1352 -55 c47 -25 63 -83 37 -135 -35 -66 -137 -66 -172 0 -47
91 44 182 135 135z m702 -15 c89 -90 -33 -227 -129 -146 -39 33 -48 74 -27
118 30 63 107 77 156 28z"/>
<path d="M1198 2001 c-64 -25 -99 -53 -133 -100 l-28 -41 -283 0 c-183 0 -284
-4 -284 -10 0 -6 100 -10 281 -10 265 0 280 -1 275 -18 -11 -32 -25 -166 -26
-229 l0 -63 109 0 109 0 3 115 c4 109 6 116 31 142 21 21 36 26 73 26 68 0 97
-32 103 -114 8 -110 -18 -188 -106 -326 l-47 -73 -402 0 c-262 0 -403 -4 -403
-10 0 -6 138 -10 395 -10 l396 0 -15 -28 c-25 -48 -46 -147 -46 -216 l0 -66
100 0 100 0 0 53 c0 72 21 138 64 203 l36 54 335 0 c214 0 335 4 335 10 0 6
-119 11 -324 12 l-324 3 47 77 c26 42 55 100 65 130 25 77 31 190 13 266 l-14
62 268 0 c173 0 269 4 269 10 0 6 -98 10 -275 10 -151 0 -275 4 -275 8 0 21
-77 95 -124 119 -69 36 -225 44 -298 14z"/>
<path d="M1190 780 l0 -40 -360 0 c-233 0 -360 -4 -360 -10 0 -6 127 -10 360
-10 l360 0 0 -60 0 -60 110 0 110 0 0 60 0 60 380 0 c247 0 380 4 380 10 0 6
-133 10 -380 10 l-380 0 0 40 0 40 -110 0 -110 0 0 -40z"/>
</g>
</svg>
